<svg width="21" height="21" viewBox="0 0 21 21" fill="none" xmlns="http://www.w3.org/2000/svg">
<g clip-path="url(#clip0_4505_1628)">
<path d="M7.65625 15.4106V19.4689C7.65625 19.7524 7.83825 20.0035 8.10775 20.0928C8.17512 20.1146 8.24425 20.1251 8.3125 20.1251C8.51725 20.1251 8.715 20.0289 8.841 19.8574L11.2149 16.6269L7.65625 15.4106Z" fill="white"/>
<path d="M20.7239 0.120726C20.5227 -0.021899 20.2584 -0.041149 20.0397 0.073476L0.352176 10.3547C0.119426 10.4764 -0.0179494 10.7249 0.00130064 10.9865C0.0214256 11.249 0.195551 11.473 0.443176 11.5579L5.9163 13.4286L17.5722 3.46235L8.55268 14.329L17.7253 17.4641C17.7936 17.4869 17.8653 17.4991 17.9371 17.4991C18.0561 17.4991 18.1742 17.4667 18.2783 17.4037C18.4446 17.3022 18.5574 17.1316 18.5863 16.94L20.9926 0.752476C21.0284 0.507476 20.9252 0.264226 20.7239 0.120726Z" fill="white"/>
</g>
<defs>
<clipPath id="clip0_4505_1628">
<rect width="21" height="21" fill="white"/>
</clipPath>
</defs>
</svg>
