<svg width="60" height="64" viewBox="0 0 60 64" fill="none" xmlns="http://www.w3.org/2000/svg">
<path d="M22.8514 2.63858C26.6778 -0.879537 32.5615 -0.879534 36.3879 2.63858L41.5246 7.3614C42.661 8.40624 44.0239 9.17379 45.5065 9.60394L52.0238 11.4948C57.1699 12.9878 60.2246 18.2716 58.9507 23.4762L57.467 29.5383C57.0847 31.1001 57.0847 32.7312 57.467 34.293L58.9507 40.3551C60.2246 45.5597 57.1699 50.8435 52.0238 52.3365L45.5065 54.2274C44.0239 54.6575 42.661 55.4251 41.5246 56.4699L36.3879 61.1927C32.5615 64.7108 26.6778 64.7108 22.8514 61.1927L17.7147 56.4699C16.5782 55.4251 15.2154 54.6575 13.7328 54.2274L7.21542 52.3365C2.0694 50.8435 -0.985349 45.5597 0.28851 40.3551L1.77225 34.293C2.15453 32.7312 2.15453 31.1001 1.77225 29.5383L0.28851 23.4762C-0.985349 18.2716 2.0694 12.9878 7.21542 11.4948L13.7328 9.60394C15.2154 9.17379 16.5782 8.40624 17.7147 7.36139L22.8514 2.63858Z" fill="#F2BF0F"/>
</svg>
